<svg width="30" height="34" viewBox="0 0 30 34" fill="none" xmlns="http://www.w3.org/2000/svg">
<path fill-rule="evenodd" clip-rule="evenodd" d="M21.1723 9.27696C19.5923 7.60294 17.4838 6.69098 15.3022 6.72845C11.3101 6.72845 7.9196 9.72043 6.7107 13.7493C6.06972 15.8605 6.06972 18.1468 6.7107 20.2581H6.71631C7.93082 24.2807 11.3157 27.2727 15.3078 27.2727C17.3685 27.2727 19.1377 26.6871 20.5088 25.6529V25.6487C22.1226 24.4619 23.2246 22.5942 23.5676 20.483H15.3022V13.9368H29.7357C29.9157 15.0736 30 16.2354 30 17.391C30 22.5615 28.3367 26.9328 25.4425 29.8936L25.4456 29.8962C22.9097 32.4946 19.4293 34 15.3022 34C9.51642 34 4.22545 30.3771 1.62776 24.6367C-0.542592 19.8333 -0.542586 14.1741 1.62777 9.3707C4.22547 3.62406 9.51642 0.00114557 15.3022 0.00114557C19.1031 -0.0488252 22.7748 1.53775 25.5411 4.42355L21.1723 9.27696Z" fill="white"/>
</svg>
